# Blender v2.79 (sub 0) OBJ File: ''
# www.blender.org
mtllib paddle.mtl
o Circle_Circle.001
v 1.157292 -0.150923 0.113620
v 1.137804 -0.150923 0.123454
v 1.137804 0.192163 0.123454
v 1.157292 0.192163 0.113620
v -0.145012 -0.150923 -0.133958
v -0.116398 -0.150923 -0.167200
v -0.116398 0.192163 -0.167200
v -0.145012 0.192163 -0.133958
v 1.116772 -0.150923 0.129299
v 1.116772 0.192163 0.129299
v -0.166592 -0.150923 -0.095774
v -0.166592 0.192163 -0.095774
v -0.123838 -0.150923 0.149125
v -0.150857 -0.150923 0.114576
v -0.150857 0.192163 0.114576
v -0.123838 0.192163 0.149125
v 1.095003 -0.150923 0.130926
v 1.095003 0.192163 0.130926
v -0.081849 -0.150923 -0.194219
v -0.081849 0.192163 -0.194219
v 1.207316 -0.150923 0.000453
v 1.208944 -0.150923 0.022221
v 1.208944 0.192163 0.022221
v 1.207316 0.192163 0.000453
v 1.121907 -0.150923 -0.089069
v 1.142642 -0.150923 -0.082243
v 1.142642 0.192163 -0.082243
v 1.121907 0.192163 -0.089069
v -0.180307 0.192163 -0.054114
v -0.166592 0.192163 -0.095774
v -0.180307 0.192163 -0.054114
v -0.090597 -0.150923 0.177739
v -0.090597 0.192163 0.177739
v 0.032783 -0.150923 0.218358
v 0.032783 0.192163 0.218358
v 1.100239 -0.150923 -0.091720
v 0.043305 -0.150923 -0.228993
v -0.000433 -0.150923 -0.225721
v -0.042692 -0.150923 -0.213979
v -0.180307 -0.150923 -0.054114
v -0.185631 -0.150923 -0.010578
v -0.182359 -0.150923 0.033160
v -0.170618 -0.150923 0.075419
v -0.052413 -0.150923 0.199318
v -0.010753 -0.150923 0.213034
v 1.174487 -0.150923 0.100171
v 1.188728 -0.150923 0.083628
v 1.199469 -0.150923 0.064624
v 1.206295 -0.150923 0.043889
v 1.201472 -0.150923 -0.020579
v 1.191637 -0.150923 -0.040067
v 1.178190 -0.150923 -0.057263
v 1.161646 -0.150923 -0.071504
v 1.206295 0.192163 0.043889
v -0.185631 0.192163 -0.010578
v -0.052413 0.192163 0.199318
v 1.178190 0.192163 -0.057263
v 1.161646 0.192163 -0.071504
v 1.199469 0.192163 0.064624
v 1.100239 0.192163 -0.091720
v 0.043305 0.192163 -0.228993
v -0.000433 0.192163 -0.225721
v -0.182359 0.192163 0.033160
v -0.010753 0.192163 0.213034
v 1.191637 0.192163 -0.040067
v 1.188728 0.192163 0.083628
v -0.042692 0.192163 -0.213979
v -0.170618 0.192163 0.075419
v 1.201472 0.192163 -0.020579
v 1.174487 0.192163 0.100171
v 1.142642 0.192163 -0.082243
v 1.161646 0.192163 -0.071504
v 1.178190 0.192163 -0.057263
v 1.191637 0.192163 -0.040067
v 1.201472 0.192163 -0.020579
v 1.207316 0.192163 0.000453
v 1.208944 0.192163 0.022221
v 1.206295 0.192163 0.043889
v 1.199469 0.192163 0.064624
v 1.188728 0.192163 0.083628
v 1.174487 0.192163 0.100171
v 1.157292 0.192163 0.113620
v 1.137804 0.192163 0.123454
v 1.116772 0.192163 0.129299
v 1.095003 0.192163 0.130926
v 0.032783 0.192163 0.218358
v -0.010753 0.192163 0.213034
v -0.052413 0.192163 0.199318
v -0.090597 0.192163 0.177739
v -0.123838 0.192163 0.149125
v -0.150857 0.192163 0.114576
v -0.170618 0.192163 0.075419
v -0.182359 0.192163 0.033160
v -0.185631 0.192163 -0.010578
v -0.145012 0.192163 -0.133958
v -0.116398 0.192163 -0.167200
v -0.081849 0.192163 -0.194219
v -0.042692 0.192163 -0.213979
v -0.000433 0.192163 -0.225721
v 0.043305 0.192163 -0.228993
v 1.100239 0.192163 -0.091720
v 1.121907 0.192163 -0.089069
v 0.032783 0.192163 0.218358
v 2.670490 0.192163 -0.866470
vt 0.000000 0.000000
vt 1.000000 0.000000
vt 1.000000 1.000000
vt 0.000000 0.000000
vt 1.000000 0.000000
vt 1.000000 1.000000
vt 0.000000 0.000000
vt 1.000000 0.000000
vt 1.000000 1.000000
vt 0.000000 0.000000
vt 1.000000 0.000000
vt 1.000000 1.000000
vt 0.000000 0.000000
vt 1.000000 0.000000
vt 1.000000 1.000000
vt 0.000000 0.000000
vt 1.000000 0.000000
vt 1.000000 1.000000
vt 0.000000 0.000000
vt 1.000000 0.000000
vt 1.000000 1.000000
vt 0.000000 0.000000
vt 1.000000 0.000000
vt 1.000000 1.000000
vt 0.000000 0.000000
vt 1.000000 0.000000
vt 1.000000 1.000000
vt 0.000000 0.000000
vt 1.000000 0.000000
vt 1.000000 1.000000
vt 0.000000 0.000000
vt 1.000000 0.000000
vt 1.000000 1.000000
vt 0.000000 0.000000
vt 1.000000 0.000000
vt 1.000000 1.000000
vt 0.000000 0.000000
vt 1.000000 0.000000
vt 0.000000 0.000000
vt 1.000000 0.000000
vt 1.000000 1.000000
vt 0.000000 0.000000
vt 1.000000 0.000000
vt 1.000000 1.000000
vt 0.000000 0.000000
vt 1.000000 0.000000
vt 1.000000 1.000000
vt 0.000000 0.000000
vt 1.000000 0.000000
vt 1.000000 1.000000
vt 0.000000 0.000000
vt 1.000000 0.000000
vt 1.000000 1.000000
vt 0.000000 0.000000
vt 1.000000 0.000000
vt 1.000000 1.000000
vt 0.000000 0.000000
vt 1.000000 0.000000
vt 1.000000 1.000000
vt 1.000000 0.000000
vt 1.000000 1.000000
vt 0.000000 0.000000
vt 1.000000 0.000000
vt 1.000000 1.000000
vt 0.000000 0.000000
vt 1.000000 0.000000
vt 1.000000 1.000000
vt 0.000000 0.000000
vt 1.000000 0.000000
vt 1.000000 1.000000
vt 0.000000 0.000000
vt 1.000000 0.000000
vt 1.000000 1.000000
vt 0.000000 0.000000
vt 1.000000 0.000000
vt 1.000000 1.000000
vt 0.000000 0.000000
vt 1.000000 0.000000
vt 1.000000 1.000000
vt 0.000000 0.000000
vt 1.000000 0.000000
vt 1.000000 1.000000
vt 0.000000 0.000000
vt 1.000000 0.000000
vt 1.000000 1.000000
vt 0.000000 0.000000
vt 1.000000 0.000000
vt 1.000000 1.000000
vt 0.000000 0.000000
vt 1.000000 0.000000
vt 1.000000 1.000000
vt 0.000000 0.000000
vt 1.000000 0.000000
vt 1.000000 1.000000
vt 0.000000 0.000000
vt 1.000000 0.000000
vt 1.000000 1.000000
vt 0.000000 0.000000
vt 1.000000 0.000000
vt 1.000000 1.000000
vt 0.000000 0.000000
vt 1.000000 0.000000
vt 1.000000 1.000000
vt 0.000000 0.000000
vt 1.000000 0.000000
vt 1.000000 1.000000
vt 0.000000 0.000000
vt 1.000000 0.000000
vt 1.000000 1.000000
vt 0.000000 0.000000
vt 1.000000 0.000000
vt 1.000000 1.000000
vt 0.000000 0.000000
vt 1.000000 0.000000
vt 1.000000 1.000000
vt 0.000000 0.000000
vt 1.000000 0.000000
vt 1.000000 1.000000
vt 0.000000 0.000000
vt 1.000000 1.000000
vt 0.000000 0.000000
vt 1.000000 0.000000
vt 1.000000 1.000000
vt 0.000000 0.000000
vt 1.000000 0.000000
vt 1.000000 1.000000
vt 0.000000 0.000000
vt 1.000000 0.000000
vt 1.000000 1.000000
vt 0.000000 0.000000
vt 1.000000 0.000000
vt 1.000000 1.000000
vt 0.000000 0.000000
vt 1.000000 0.000000
vt 1.000000 1.000000
vt 0.000000 0.000000
vt 1.000000 0.000000
vt 1.000000 1.000000
vt 0.000000 0.000000
vt 1.000000 0.000000
vt 1.000000 1.000000
vt 0.000000 0.000000
vt 1.000000 0.000000
vt 1.000000 1.000000
vt 0.000000 0.000000
vt 1.000000 0.000000
vt 1.000000 1.000000
vt 0.000000 0.000000
vt 1.000000 0.000000
vt 1.000000 1.000000
vt 0.000000 0.000000
vt 1.000000 0.000000
vt 1.000000 1.000000
vt 0.000000 0.000000
vt 1.000000 0.000000
vt 1.000000 1.000000
vt 0.000000 0.000000
vt 1.000000 0.000000
vt 1.000000 1.000000
vt 0.000000 0.000000
vt 1.000000 0.000000
vt 1.000000 1.000000
vt 0.000000 0.000000
vt 1.000000 0.000000
vt 1.000000 1.000000
vt 0.000000 0.000000
vt 1.000000 0.000000
vt 1.000000 1.000000
vt 0.000000 0.000000
vt 1.000000 0.000000
vt 1.000000 1.000000
vt 0.000000 0.000000
vt 1.000000 0.000000
vt 1.000000 1.000000
vt 0.000000 0.000000
vt 1.000000 0.000000
vt 1.000000 1.000000
vt 0.000000 0.000000
vt 1.000000 0.000000
vt 1.000000 1.000000
vt 0.000000 0.000000
vt 1.000000 0.000000
vt 1.000000 1.000000
vt 0.000000 0.000000
vt 1.000000 0.000000
vt 0.000000 0.000000
vt 1.000000 0.000000
vt 1.000000 1.000000
vt 0.000000 0.000000
vt 1.000000 0.000000
vt 1.000000 1.000000
vt 0.000000 0.000000
vt 1.000000 0.000000
vt 1.000000 1.000000
vt 0.000000 0.000000
vt 1.000000 0.000000
vt 1.000000 1.000000
vt 0.000000 0.000000
vt 1.000000 0.000000
vt 1.000000 1.000000
vt 0.000000 0.000000
vt 1.000000 0.000000
vt 1.000000 1.000000
vt 0.000000 0.000000
vt 1.000000 0.000000
vt 1.000000 1.000000
vt 1.000000 1.000000
vt 1.000000 1.000000
vt 1.000000 1.000000
vt 1.000000 1.000000
vt 1.000000 1.000000
vt 1.000000 1.000000
vt 1.000000 1.000000
vt 1.000000 1.000000
vt 1.000000 1.000000
vt 1.000000 1.000000
vt 1.000000 1.000000
vt 1.000000 0.000000
vt 1.000000 0.000000
vt 1.000000 0.000000
vt 1.000000 0.000000
vt 1.000000 0.000000
vt 1.000000 0.000000
vt 1.000000 0.000000
vt 1.000000 0.000000
vt 1.000000 0.000000
vt 1.000000 0.000000
vt 1.000000 0.000000
vt 1.000000 0.000000
vt 1.000000 0.000000
vt 1.000000 0.000000
vt 1.000000 0.000000
vt 1.000000 0.000000
vt 1.000000 0.000000
vt 1.000000 0.000000
vt 1.000000 0.000000
vt 1.000000 0.000000
vt 1.000000 0.000000
vt 1.000000 0.000000
vt 1.000000 0.000000
vt 1.000000 0.000000
vt 1.000000 0.000000
vt 1.000000 0.000000
vt 1.000000 1.000000
vt 1.000000 1.000000
vt 1.000000 1.000000
vt 1.000000 1.000000
vt 1.000000 1.000000
vt 1.000000 1.000000
vt 1.000000 1.000000
vt 1.000000 1.000000
vt 1.000000 1.000000
vt 1.000000 1.000000
vt 1.000000 1.000000
vt 1.000000 1.000000
vt 1.000000 1.000000
vt 1.000000 1.000000
vt 1.000000 1.000000
vt 1.000000 1.000000
vt 1.000000 1.000000
vt 1.000000 1.000000
vt 1.000000 1.000000
vt 1.000000 1.000000
vt 1.000000 1.000000
vt 1.000000 1.000000
vt 1.000000 1.000000
vt 0.000000 0.000000
vt 0.000000 0.000000
vt 0.000000 0.000000
vt 0.000000 0.000000
vt 0.000000 0.000000
vt 0.000000 0.000000
vt 0.000000 0.000000
vt 0.000000 0.000000
vt 0.000000 0.000000
vt 0.000000 0.000000
vt 0.000000 0.000000
vt 0.000000 0.000000
vt 0.000000 0.000000
vt 0.000000 0.000000
vt 0.000000 0.000000
vt 0.000000 0.000000
vt 0.000000 0.000000
vt 0.000000 0.000000
vt 0.000000 0.000000
vt 0.000000 0.000000
vn -0.4505 0.0000 -0.8928
vn 0.7579 -0.0000 0.6524
vn -0.2677 0.0000 -0.9635
vn 0.8706 -0.0000 0.4920
vn 0.7877 0.0000 -0.6160
vn -0.0783 0.0000 -0.9969
vn -0.0745 0.0000 -0.9972
vn 0.6160 -0.0000 0.7877
vn -0.9972 0.0000 0.0746
vn -0.3127 -0.0000 0.9498
vn 0.0000 0.0000 1.0000
vn 0.6524 0.0000 -0.7579
vn -0.0820 0.0000 -0.9966
vn 0.0000 1.0000 0.0000
vn -0.9926 -0.0000 -0.1214
vn 0.9926 -0.0000 0.1214
vn 0.9498 -0.0000 0.3127
vn 0.4920 0.0000 -0.8706
vn -0.6524 0.0000 0.7579
vn -0.9499 -0.0000 -0.3127
vn -0.1251 -0.0000 0.9921
vn -0.1288 -0.0000 0.9917
vn 0.0746 -0.0000 0.9972
vn 0.9972 -0.0000 -0.0746
vn 0.3127 0.0000 -0.9498
vn -0.7877 -0.0000 0.6160
vn -0.8706 0.0000 -0.4921
vn -0.4920 0.0000 0.8706
vn 0.2677 -0.0000 0.9635
vn 0.9635 -0.0000 -0.2677
vn 0.1214 0.0000 -0.9926
vn -0.8928 0.0000 0.4505
vn -0.7579 0.0000 -0.6524
vn 0.8928 0.0000 -0.4505
vn 0.4505 -0.0000 0.8928
vn -0.9635 -0.0000 0.2677
vn -0.1214 -0.0000 0.9926
vn -0.6161 -0.0000 -0.7877
vn 0.0000 -1.0000 0.0000
usemtl None
s 1
f 2/1/1 4/2/1 1/3/1
f 6/4/2 8/5/2 5/6/2
f 9/7/3 3/8/3 2/9/3
f 5/10/4 12/11/4 11/12/4
f 14/13/5 16/14/5 13/15/5
f 17/16/6 10/17/7 9/18/7
f 19/19/8 7/20/8 6/21/8
f 22/22/9 24/23/9 21/24/9
f 26/25/10 28/26/10 25/27/10
f 29/28/11 30/29/11 31/30/11
f 13/31/12 33/32/12 32/33/12
f 34/34/13 18/35/6 17/36/6
f 37/37/14 34/38/14 17/36/14
f 49/39/15 23/40/15 22/41/15
f 40/42/16 55/43/16 41/44/16
f 11/45/17 29/46/17 40/47/17
f 32/48/18 56/49/18 44/50/18
f 52/51/19 58/52/19 53/53/19
f 48/54/20 54/55/20 49/56/20
f 36/57/21 61/58/22 37/59/22
f 37/37/23 62/60/23 38/61/23
f 41/62/24 63/63/24 42/64/24
f 44/65/25 64/66/25 45/67/25
f 51/68/26 57/69/26 52/70/26
f 47/71/27 59/72/27 48/73/27
f 53/74/28 27/75/28 26/76/28
f 38/77/29 67/78/29 39/79/29
f 42/80/30 68/81/30 43/82/30
f 45/83/31 35/84/31 34/85/31
f 50/86/32 65/87/32 51/88/32
f 46/89/33 66/90/33 47/91/33
f 43/92/34 15/93/34 14/94/34
f 39/95/35 20/96/35 19/97/35
f 21/98/36 69/99/36 50/100/36
f 25/101/37 60/102/21 36/103/21
f 1/104/38 70/105/38 46/106/38
f 87/107/39 91/108/39 97/109/39
f 10/110/11 85/111/11 84/112/11
f 15/113/11 92/114/11 91/115/11
f 18/116/11 86/117/11 85/118/11
f 16/119/11 91/108/11 90/120/11
f 61/121/11 101/122/11 100/123/11
f 33/124/11 90/125/11 89/126/11
f 27/127/11 72/128/11 71/129/11
f 56/130/11 89/131/11 88/132/11
f 64/133/11 88/134/11 87/135/11
f 69/136/11 76/137/11 75/138/11
f 35/139/11 87/140/11 86/141/11
f 24/142/11 77/143/11 76/144/11
f 60/145/11 102/146/11 101/147/11
f 23/148/11 78/149/11 77/150/11
f 28/151/11 71/152/11 102/153/11
f 54/154/11 79/155/11 78/156/11
f 65/157/11 75/158/11 74/159/11
f 62/160/11 100/161/11 99/162/11
f 58/163/11 73/164/11 72/165/11
f 59/166/11 80/167/11 79/168/11
f 12/169/11 95/170/11 30/171/11
f 67/172/11 99/173/11 98/174/11
f 57/175/11 74/176/11 73/177/11
f 66/178/11 81/179/11 80/180/11
f 8/181/11 96/182/11 95/183/11
f 20/184/11 98/185/11 97/109/11
f 70/186/11 82/187/11 81/188/11
f 55/189/11 31/190/11 94/191/11
f 7/192/11 97/193/11 96/194/11
f 4/195/11 83/196/11 82/197/11
f 63/198/11 94/199/11 93/200/11
f 3/201/11 84/202/11 83/203/11
f 68/204/11 93/205/11 92/206/11
f 2/1/1 3/8/1 4/207/1
f 6/4/2 7/20/2 8/208/2
f 9/7/3 10/17/3 3/209/3
f 5/10/4 8/5/4 12/210/4
f 14/13/5 15/93/5 16/211/5
f 17/16/6 18/35/6 10/212/7
f 19/19/8 20/96/8 7/213/8
f 22/22/9 23/40/9 24/214/9
f 26/25/10 27/75/10 28/215/10
f 29/28/11 12/11/11 30/171/11
f 13/31/12 16/14/12 33/216/12
f 34/34/13 35/84/13 18/217/6
f 53/74/14 26/218/14 36/103/14
f 36/57/14 37/219/14 17/36/14
f 26/25/14 25/220/14 36/103/14
f 51/68/14 52/221/14 53/53/14
f 21/98/14 50/222/14 51/88/14
f 49/39/14 22/223/14 51/88/14
f 47/71/14 48/224/14 49/56/14
f 1/104/14 46/225/14 47/91/14
f 9/7/14 2/226/14 17/36/14
f 45/83/14 34/38/14 37/59/14
f 17/16/14 2/226/14 1/3/14
f 1/104/14 47/227/14 17/36/14
f 22/22/14 21/228/14 51/88/14
f 51/68/14 53/229/14 36/103/14
f 37/37/14 38/230/14 41/44/14
f 39/95/14 19/231/14 6/21/14
f 6/4/14 5/232/14 41/44/14
f 11/45/14 40/233/14 41/44/14
f 41/62/14 42/234/14 13/15/14
f 43/92/14 14/235/14 13/15/14
f 13/31/14 32/236/14 44/50/14
f 44/65/14 45/237/14 37/59/14
f 17/16/14 47/227/14 49/56/14
f 49/39/14 51/238/14 17/36/14
f 38/77/14 39/239/14 41/44/14
f 5/10/14 11/240/14 41/44/14
f 42/80/14 43/241/14 13/15/14
f 13/31/14 44/242/14 41/44/14
f 17/16/14 51/238/14 36/103/14
f 39/95/14 6/243/14 41/44/14
f 41/62/14 44/242/14 37/59/14
f 49/39/15 54/55/15 23/244/15
f 40/42/16 29/46/16 55/245/16
f 11/45/17 12/11/17 29/246/17
f 32/48/18 33/32/18 56/247/18
f 52/51/19 57/69/19 58/248/19
f 48/54/20 59/72/20 54/249/20
f 36/57/21 60/102/21 61/250/22
f 37/37/23 61/58/23 62/251/23
f 41/62/24 55/43/24 63/252/24
f 44/65/25 56/49/25 64/253/25
f 51/68/26 65/87/26 57/254/26
f 47/71/27 66/90/27 59/255/27
f 53/74/28 58/52/28 27/256/28
f 38/77/29 62/60/29 67/257/29
f 42/80/30 63/63/30 68/258/30
f 45/83/31 64/66/31 35/259/31
f 50/86/32 69/99/32 65/260/32
f 46/89/33 70/105/33 66/261/33
f 43/92/34 68/81/34 15/262/34
f 39/95/35 67/78/35 20/263/35
f 21/98/36 24/23/36 69/264/36
f 25/101/37 28/26/37 60/265/21
f 1/104/38 4/2/38 70/266/38
f 102/267/39 71/152/39 74/159/39
f 72/268/39 73/164/39 74/159/39
f 74/269/39 75/158/39 76/144/39
f 76/270/39 77/143/39 74/159/39
f 78/271/39 79/155/39 80/180/39
f 80/272/39 81/179/39 82/197/39
f 82/273/39 83/196/39 85/118/39
f 85/274/39 86/117/39 101/147/39
f 83/275/39 84/202/39 85/118/39
f 78/271/39 80/167/39 74/159/39
f 74/269/39 77/143/39 78/156/39
f 71/276/39 72/128/39 74/159/39
f 99/277/39 100/161/39 87/135/39
f 101/278/39 102/146/39 74/159/39
f 74/269/39 80/167/39 82/197/39
f 82/273/39 85/111/39 74/159/39
f 87/107/39 88/134/39 89/126/39
f 89/279/39 90/125/39 91/115/39
f 91/280/39 92/114/39 93/200/39
f 93/281/39 94/199/39 31/30/39
f 31/282/39 30/29/39 95/183/39
f 95/283/39 96/182/39 97/109/39
f 97/284/39 98/185/39 99/162/39
f 100/285/39 86/117/39 87/135/39
f 74/269/39 85/111/39 101/147/39
f 87/107/39 89/131/39 91/115/39
f 91/280/39 93/205/39 31/30/39
f 31/282/39 95/170/39 91/115/39
f 97/284/39 99/173/39 87/135/39
f 86/286/39 100/161/39 101/147/39
f 91/280/39 95/170/39 97/109/39
f 10/110/11 18/35/11 85/118/11
f 15/113/11 68/81/11 92/206/11
f 18/116/11 35/84/11 86/141/11
f 16/119/11 15/93/11 91/115/11
f 61/121/11 60/102/11 101/147/11
f 33/124/11 16/14/11 90/120/11
f 27/127/11 58/52/11 72/165/11
f 56/130/11 33/32/11 89/126/11
f 64/133/11 56/49/11 88/132/11
f 69/136/11 24/23/11 76/144/11
f 35/139/11 64/66/11 87/135/11
f 24/142/11 23/40/11 77/150/11
f 60/145/11 28/26/11 102/153/11
f 23/148/11 54/55/11 78/156/11
f 28/151/11 27/75/11 71/129/11
f 54/154/11 59/72/11 79/168/11
f 65/157/11 69/99/11 75/138/11
f 62/160/11 61/58/11 100/123/11
f 58/163/11 57/69/11 73/177/11
f 59/166/11 66/90/11 80/180/11
f 12/169/11 8/5/11 95/183/11
f 67/172/11 62/60/11 99/162/11
f 57/175/11 65/87/11 74/159/11
f 66/178/11 70/105/11 81/188/11
f 8/181/11 7/20/11 96/194/11
f 20/184/11 67/78/11 98/174/11
f 70/186/11 4/2/11 82/197/11
f 55/189/11 29/46/11 31/30/11
f 7/192/11 20/96/11 97/109/11
f 4/195/11 3/8/11 83/203/11
f 63/198/11 55/43/11 94/191/11
f 3/201/11 10/17/11 84/112/11
f 68/204/11 63/63/11 93/200/11
l 35 103
