# Blender v2.79 (sub 0) OBJ File: ''
# www.blender.org
mtllib rArm.mtl
o Body_body_mesh.002
v -0.687807 -0.253546 0.038497
v -0.668775 -0.261816 0.016659
v -0.648714 -0.292345 0.088124
v -0.672265 -0.273519 0.091030
v -0.697533 -0.216161 0.135385
v -0.684893 -0.198359 0.155362
v -0.690708 -0.148556 0.087276
v -0.699046 -0.176432 0.083319
v -0.736871 -0.192338 0.085988
v -0.735183 -0.228334 0.142277
v -0.708333 -0.268790 0.152651
v -0.677480 -0.252032 0.146622
v -0.733575 -0.272718 0.094170
v -0.738452 -0.274358 0.029817
v -0.738009 -0.214693 0.031752
v -0.693989 -0.194615 0.036644
v -0.818812 -0.269783 0.031998
v -0.886222 -0.333270 0.050962
v -0.884338 -0.304179 0.122035
v -0.817071 -0.240499 0.103354
v -0.873034 -0.303352 0.177414
v -0.803731 -0.262271 0.168165
v -0.865323 -0.331727 0.179721
v -0.789774 -0.290515 0.175695
v -0.876558 -0.347023 0.105609
v -0.805941 -0.302909 0.095373
v -0.877398 -0.363597 0.030166
v -0.808083 -0.322782 0.020285
v -0.936281 -0.384132 0.171654
v -0.950037 -0.405532 0.122614
v -0.951304 -0.408228 0.078423
v -0.957869 -0.388962 0.083841
v -0.962252 -0.379123 0.118260
v -0.944913 -0.364785 0.164874
v -0.783916 -0.268433 0.206262
v -0.742438 -0.248438 0.198696
v -0.748626 -0.267817 0.234806
v -0.739602 -0.282639 0.235091
v -0.728805 -0.273674 0.197958
v -0.775380 -0.290001 0.204334
v -0.773332 -0.278935 0.236229
v -0.767097 -0.291504 0.235068
v -0.683791 -0.177103 0.015268
v -0.658296 -0.257772 0.167835
v -0.003563 -0.078100 0.125434
v 0.002656 -0.085263 -0.061924
v 0.022153 0.009908 -0.112448
v 0.041433 0.145818 -0.087286
v 0.040360 0.157692 0.053177
v 0.026745 0.053250 0.128432
v -0.274632 0.028260 0.070788
v -0.309903 0.011860 0.065536
v -0.293724 -0.059974 0.153351
v -0.260432 -0.048236 0.158468
v -0.254368 -0.136627 0.162643
v -0.223031 -0.130858 0.162684
v -0.270791 -0.000944 -0.029010
v -0.307798 -0.019552 -0.027518
v -0.252833 -0.173814 0.056728
v -0.217895 -0.161218 0.048288
v -0.289436 -0.129226 -0.032997
v -0.248866 -0.113323 -0.036459
v -0.297083 -0.153027 0.170779
v -0.296606 -0.191636 0.064373
v -0.333443 -0.147204 -0.026223
v -0.352436 -0.035941 -0.020549
v -0.352912 -0.004521 0.073847
v -0.336854 -0.076987 0.161170
v -0.524570 -0.064045 0.085554
v -0.517802 -0.142672 0.176063
v -0.478832 -0.222862 0.188217
v -0.467330 -0.259607 0.076950
v -0.496354 -0.210473 -0.019857
v -0.514834 -0.094470 -0.012583
v -0.059535 -0.038580 -0.056771
v -0.094235 0.084417 -0.044552
v -0.047113 -0.101159 0.002231
v -0.050587 -0.093106 0.145356
v -0.101409 0.110067 0.090074
v -0.086646 0.017672 0.175472
v -0.003563 -0.078100 0.125434
v 0.040360 0.157692 0.053177
v 0.026745 0.053250 0.128432
vt 0.475472 0.038259
vt 0.453591 0.031132
vt 0.461748 0.026457
vt 0.525239 0.048742
vt 0.506163 0.047780
vt 0.523470 0.041753
vt 0.663541 0.674206
vt 0.683126 0.676541
vt 0.666397 0.685830
vt 0.701048 0.668182
vt 0.695387 0.679906
vt 0.709161 0.691295
vt 0.613886 0.683452
vt 0.634843 0.689877
vt 0.621030 0.700023
vt 0.647149 0.676610
vt 0.652192 0.689446
vt 0.636092 0.652554
vt 0.647000 0.623317
vt 0.657147 0.647383
vt 0.675619 0.635165
vt 0.659948 0.616060
vt 0.681650 0.626293
vt 0.744417 0.632885
vt 0.740704 0.665346
vt 0.722666 0.647636
vt 0.591336 0.641468
vt 0.623092 0.650204
vt 0.603947 0.662656
vt 0.620731 0.651695
vt 0.626780 0.628613
vt 0.768771 0.621175
vt 0.760802 0.649504
vt 0.587668 0.612200
vt 0.610809 0.629795
vt 0.616056 0.628755
vt 0.624689 0.604893
vt 0.632354 0.602479
vt 0.643519 0.600355
vt 0.663374 0.608719
vt 0.629741 0.594894
vt 0.644873 0.594894
vt 0.630445 0.674187
vt 0.720562 0.678254
vt 0.695161 0.647473
vt 0.682416 0.663463
vt 0.703218 0.638269
vt 0.703115 0.650365
vt 0.690330 0.633991
vt 0.703807 0.629616
vt 0.708014 0.636818
vt 0.691058 0.626938
vt 0.700028 0.631114
vt 0.701424 0.638802
vt 0.715120 0.641969
vt 0.491173 0.046825
vt 0.471180 0.044835
vt 0.536096 0.039503
vt 0.507635 0.055063
vt 0.557904 0.028228
vt 0.548723 0.025088
vt 0.510650 0.161835
vt 0.549515 0.165397
vt 0.512927 0.174150
vt 0.575752 0.152197
vt 0.578906 0.162148
vt 0.480089 0.173307
vt 0.609943 0.141020
vt 0.615126 0.151783
vt 0.413889 0.150402
vt 0.445564 0.164428
vt 0.413794 0.162332
vt 0.479732 0.160520
vt 0.605106 0.127622
vt 0.414666 0.135331
vt 0.446836 0.151008
vt 0.481169 0.145898
vt 0.511548 0.147332
vt 0.546953 0.154400
vt 0.572155 0.137742
vt 0.537116 0.087688
vt 0.509562 0.097784
vt 0.540160 0.046180
vt 0.560145 0.084641
vt 0.590811 0.073468
vt 0.455410 0.086754
vt 0.424765 0.078633
vt 0.489349 0.054830
vt 0.483764 0.098083
vt 0.447748 0.136426
vt 0.545797 0.139483
vt 0.443947 0.258795
vt 0.480564 0.233845
vt 0.483918 0.279306
vt 0.415880 0.237122
vt 0.440486 0.228373
vt 0.594501 0.222454
vt 0.640121 0.203104
vt 0.652148 0.215611
vt 0.528279 0.273641
vt 0.559517 0.222685
vt 0.562890 0.250316
vt 0.521017 0.234008
vt 0.412669 0.219828
vt 0.592696 0.210963
vt 0.722123 0.351406
vt 0.743851 0.375906
vt 0.722123 0.351406
vt 0.743851 0.375906
vt 0.778908 0.380869
vt 0.782834 0.630463
vt 0.576001 0.617974
vt 0.619670 0.602555
vt 0.707862 0.640038
vt 0.700380 0.627011
vt 0.708971 0.634884
vt 0.778908 0.380869
vn -0.5769 -0.7989 -0.1702
vn -0.6089 -0.7822 -0.1319
vn -0.6288 -0.7702 -0.1068
vn -0.9118 0.3071 0.2726
vn -0.9296 0.2597 0.2616
vn -0.9025 0.3294 0.2775
vn -0.2424 0.7842 0.5712
vn -0.2064 0.8069 0.5535
vn -0.2780 0.7597 0.5878
vn 0.0546 0.3011 0.9520
vn 0.0468 0.3027 0.9519
vn 0.0184 0.3083 0.9511
vn 0.2645 -0.9373 0.2268
vn 0.1732 -0.9691 0.1757
vn 0.4989 -0.7916 0.3528
vn 0.1746 -0.9663 -0.1893
vn 0.1897 -0.9658 -0.1767
vn -0.0300 -0.9372 -0.3474
vn 0.1401 0.0092 -0.9901
vn 0.1363 0.0042 -0.9907
vn 0.1189 -0.0187 -0.9927
vn -0.3666 0.8587 -0.3582
vn -0.3699 0.8561 -0.3610
vn -0.3821 0.8463 -0.3711
vn -0.7006 0.6663 -0.2554
vn -0.7005 0.6665 -0.2552
vn -0.7011 0.6655 -0.2560
vn -0.5438 0.8118 0.2127
vn -0.5618 0.7812 0.2720
vn -0.5851 0.7248 0.3639
vn 0.0022 0.1186 0.9929
vn -0.0129 0.2141 0.9767
vn -0.0184 0.2491 0.9683
vn 0.5096 -0.8579 0.0656
vn 0.5071 -0.8596 0.0633
vn 0.4801 -0.8764 0.0386
vn 0.5287 -0.8275 0.1892
vn 0.5296 -0.8267 0.1901
vn 0.5398 -0.8175 0.2010
vn -0.3814 0.2061 -0.9011
vn -0.3828 0.3446 -0.8572
vn -0.3772 0.1264 -0.9175
vn 0.6175 -0.7771 0.1217
vn 0.6026 -0.7895 0.1163
vn 0.5866 -0.8062 0.0775
vn 0.6129 -0.7857 0.0838
vn 0.5874 -0.7918 0.1674
vn -0.5927 0.2911 -0.7510
vn -0.5743 0.1032 -0.8121
vn -0.5936 0.3305 -0.7338
vn -0.6620 0.6984 -0.2720
vn -0.6639 0.6947 -0.2768
vn -0.6608 0.7006 -0.2692
vn -0.6681 0.7375 0.0987
vn -0.6841 0.7268 0.0609
vn -0.6571 0.7437 0.1230
vn -0.2524 0.1807 0.9506
vn -0.2037 0.0513 0.9777
vn -0.1941 0.0270 0.9806
vn -0.8789 -0.2857 0.3820
vn -0.8611 -0.3099 0.4032
vn -0.8905 -0.2687 0.3671
vn -0.9308 -0.3642 0.0324
vn -0.9200 -0.3914 0.0186
vn -0.9079 -0.4192 0.0042
vn -0.0220 0.0885 -0.9958
vn -0.0181 0.1535 -0.9880
vn -0.0253 0.0326 -0.9991
vn 0.4799 -0.8698 0.1152
vn 0.4648 -0.8803 0.0952
vn 0.3849 -0.9229 -0.0057
vn 0.3255 -0.9454 0.0180
vn 0.3135 -0.9495 0.0088
vn 0.2466 -0.9682 -0.0414
vn -0.3501 0.8870 0.3011
vn -0.3473 0.8905 0.2938
vn -0.3405 0.8987 0.2764
vn -0.3271 0.8445 0.4242
vn -0.3377 0.8254 0.4524
vn -0.3587 0.7815 0.5105
vn -0.5372 0.7842 -0.3106
vn -0.5369 0.7846 -0.3100
vn -0.5379 0.7833 -0.3116
vn 0.8061 0.4705 0.3588
vn 0.8150 0.4483 0.3672
vn 0.8209 0.4326 0.3728
vn 0.7869 0.4996 0.3620
vn 0.7745 0.5353 0.3371
vn 0.7561 0.5797 0.3038
vn -0.8506 -0.3352 0.4052
vn -0.8436 -0.3454 0.4112
vn -0.8608 -0.3198 0.3960
vn 0.2729 -0.9618 -0.0198
vn 0.2901 -0.9542 -0.0726
vn 0.2614 -0.9651 0.0141
vn 0.0190 -0.0038 0.9998
vn 0.0508 -0.0285 0.9983
vn -0.0059 0.0156 0.9999
vn -0.8975 -0.3956 0.1949
vn -0.8829 -0.4232 0.2035
vn -0.9072 -0.3759 0.1887
vn -0.3440 0.8462 0.4070
vn -0.3442 0.8460 0.4073
vn -0.3380 0.8522 0.3994
vn 0.3086 -0.9418 -0.1335
vn 0.3082 -0.9420 -0.1330
vn 0.3110 -0.9405 -0.1366
vn -0.8245 -0.1468 -0.5465
vn -0.7891 -0.1167 -0.6031
vn -0.7686 -0.1005 -0.6318
vn -0.7481 -0.2060 0.6308
vn -0.7398 -0.2065 0.6404
vn -0.7330 -0.2068 0.6480
vn -0.9285 0.3027 -0.2152
vn -0.9323 0.2956 -0.2085
vn -0.9255 0.3081 -0.2203
vn -0.5748 -0.7780 0.2535
vn -0.5518 -0.7884 0.2720
vn -0.5871 -0.7721 0.2433
vn -0.3899 0.6646 0.6374
vn -0.3547 0.6876 0.6335
vn -0.4007 0.6573 0.6383
vn -0.1313 0.0378 0.9906
vn -0.0437 0.0441 0.9981
vn -0.0099 0.0465 0.9989
vn -0.4232 0.8580 -0.2912
vn -0.3871 0.8788 -0.2791
vn -0.3717 0.8870 -0.2739
vn 0.2149 -0.9246 0.3144
vn 0.3488 -0.8986 0.2662
vn 0.3816 -0.8890 0.2531
vn 0.1976 -0.8261 -0.5278
vn 0.2522 -0.8165 -0.5193
vn 0.1708 -0.8298 -0.5314
vn -0.0914 0.0375 -0.9951
vn -0.0734 0.0488 -0.9961
vn -0.0668 0.0530 -0.9964
vn 0.3950 -0.8635 0.3136
vn 0.4013 -0.8619 0.3100
vn 0.4044 -0.8611 0.3082
vn 0.2494 -0.8235 -0.5095
vn 0.2547 -0.8226 -0.5085
vn 0.2464 -0.8241 -0.5101
vn -0.1614 0.0226 -0.9866
vn -0.1619 0.0223 -0.9866
vn -0.1621 0.0221 -0.9865
vn -0.3753 0.8766 -0.3013
vn -0.3838 0.8747 -0.2961
vn -0.3698 0.8777 -0.3047
vn -0.1644 0.7474 0.6437
vn -0.1719 0.7433 0.6465
vn -0.1612 0.7491 0.6425
vn 0.1099 0.1791 0.9777
vn 0.1141 0.1789 0.9772
vn 0.1174 0.1787 0.9769
vn -0.3310 0.7314 0.5962
vn -0.3403 0.7108 0.6156
vn -0.3470 0.6950 0.6297
vn -0.1369 0.0966 0.9859
vn -0.1552 0.1193 0.9807
vn -0.1291 0.0870 0.9878
vn 0.1710 -0.9213 0.3493
vn 0.1504 -0.9132 0.3787
vn 0.1873 -0.9268 0.3254
vn 0.1579 -0.8813 -0.4454
vn 0.1396 -0.8739 -0.4656
vn 0.1273 -0.8686 -0.4790
vn -0.1823 0.0106 -0.9832
vn -0.1880 -0.0222 -0.9819
vn -0.1784 0.0332 -0.9834
vn -0.4356 0.8300 -0.3484
vn -0.4502 0.8334 -0.3206
vn -0.4585 0.8349 -0.3043
vn -0.3324 0.8932 -0.3027
vn -0.3341 0.8915 -0.3059
vn -0.3308 0.8949 -0.2995
vn -0.0619 0.0448 -0.9971
vn -0.0609 0.0484 -0.9970
vn -0.0633 0.0400 -0.9972
vn 0.2921 -0.8119 -0.5054
vn 0.2886 -0.8109 -0.5090
vn 0.2846 -0.8099 -0.5129
vn 0.3691 -0.8722 0.3210
vn 0.3677 -0.8720 0.3232
vn 0.3708 -0.8725 0.3182
vn 0.0347 0.1494 0.9882
vn 0.0271 0.1567 0.9873
vn 0.0390 0.1453 0.9886
vn -0.2110 0.7310 0.6489
vn -0.2106 0.7319 0.6480
vn -0.2101 0.7330 0.6469
vn -0.4594 0.0879 -0.8839
vn -0.4577 0.0909 -0.8844
vn -0.3824 0.2204 -0.8973
vn -0.4479 -0.5160 -0.7301
vn -0.4446 -0.5111 -0.7356
vn -0.3561 -0.3802 -0.8536
vn 0.3333 -0.9410 0.0583
vn 0.3541 -0.9339 0.0496
vn 0.3590 -0.9321 0.0476
vn -0.3929 0.9088 -0.1403
vn -0.3984 0.9077 -0.1319
vn -0.4316 0.8986 -0.0793
vn 0.4129 -0.1139 0.9036
vn 0.4144 -0.1124 0.9031
vn 0.4113 -0.1155 0.9041
vn 0.0524 0.6373 0.7688
vn 0.0472 0.6298 0.7753
vn 0.0155 0.5832 0.8122
vn -0.1200 0.0573 -0.9911
vn -0.1214 0.0497 -0.9914
vn -0.1186 0.0650 -0.9908
vn 0.1735 -0.7111 -0.6813
vn 0.1606 -0.7924 -0.5885
vn 0.1802 -0.6556 -0.7333
vn 0.3062 -0.9425 0.1337
vn 0.2809 -0.9432 0.1777
vn 0.3458 -0.9363 0.0611
vn -0.4137 0.8843 -0.2165
vn -0.4249 0.8730 -0.2396
vn -0.4015 0.8955 -0.1920
vn 0.0707 -0.1498 0.9862
vn -0.0143 -0.0728 0.9972
vn 0.1442 -0.2156 0.9658
vn -0.3390 0.6553 0.6750
vn -0.3500 0.6311 0.6923
vn -0.3629 0.6005 0.7125
vn 0.0000 0.0000 1.0000
vn 0.5502 -0.0732 0.8318
vn 0.9844 -0.1750 0.0196
vn 0.9790 -0.2025 0.0234
vn 0.9862 -0.1650 0.0143
vn -0.5632 -0.8052 -0.1859
vn -0.9351 0.2431 0.2577
vn -0.1698 0.8279 0.5345
vn 0.0785 0.2962 0.9519
vn -0.0094 -0.9974 0.0710
vn 0.3809 -0.9246 -0.0053
vn 0.1565 0.0309 -0.9872
vn -0.3563 0.8665 -0.3497
vn -0.7000 0.6672 -0.2545
vn -0.4991 0.8620 0.0890
vn 0.0078 0.0831 0.9965
vn 0.5371 -0.8385 0.0916
vn 0.5180 -0.8366 0.1780
vn -0.3783 0.4461 -0.8111
vn 0.6354 -0.7676 0.0836
vn -0.5632 0.0402 -0.8254
vn -0.6661 0.6904 -0.2822
vn -0.6937 0.7193 0.0368
vn -0.2636 0.2121 0.9410
vn -0.8496 -0.3244 0.4158
vn -0.9413 -0.3341 0.0474
vn -0.0144 0.2130 -0.9769
vn 0.5406 -0.8169 0.2008
vn 0.3851 -0.9206 0.0645
vn -0.3608 0.8728 0.3288
vn -0.3018 0.8833 0.3588
vn -0.5364 0.7853 -0.3092
vn 0.7970 0.4919 0.3505
vn 0.8073 0.4241 0.4105
vn -0.8289 -0.3659 0.4232
vn 0.3106 -0.9403 -0.1392
vn 0.0807 -0.0519 0.9954
vn -0.8676 -0.4499 0.2118
vn -0.3527 0.8372 0.4180
vn 0.3044 -0.9439 -0.1282
vn -0.8353 -0.1567 -0.5269
vn -0.7529 -0.2058 0.6252
vn -0.9338 0.2927 -0.2057
vn -0.5442 -0.7916 0.2779
vn -0.3423 0.6954 0.6319
vn -0.1640 0.0353 0.9858
vn -0.4386 0.8484 -0.2963
vn 0.1706 -0.9289 0.3286
vn 0.2743 -0.8119 -0.5154
vn -0.0979 0.0333 -0.9946
vn 0.3919 -0.8643 0.3154
vn 0.2576 -0.8220 -0.5079
vn -0.1612 0.0228 -0.9867
vn -0.3892 0.8734 -0.2927
vn -0.1751 0.7416 0.6476
vn 0.1066 0.1793 0.9780
vn -0.3217 0.7509 0.5767
vn -0.1649 0.1314 0.9775
vn 0.1295 -0.9039 0.4076
vn 0.1736 -0.8871 -0.4277
vn -0.1926 -0.0502 -0.9800
vn -0.4245 0.8270 -0.3686
vn -0.3358 0.8897 -0.3092
vn -0.0595 0.0530 -0.9968
vn 0.2961 -0.8130 -0.5014
vn 0.3662 -0.8717 0.3257
vn 0.0229 0.1607 0.9867
vn -0.2115 0.7300 0.6499
vn -0.5344 -0.0671 -0.8425
vn -0.5248 -0.6368 -0.5649
vn 0.3268 -0.9431 0.0610
vn -0.3573 0.9138 -0.1931
vn 0.4172 -0.1095 0.9022
vn 0.0862 0.6836 0.7247
vn -0.1229 0.0418 -0.9915
vn 0.1516 -0.8358 -0.5277
vn 0.2313 -0.9377 0.2592
vn -0.4384 0.8579 -0.2679
vn -0.0995 0.0057 0.9950
vn -0.3240 0.6863 0.6512
vn 0.4394 -0.1018 0.8925
vn 0.9894 -0.1440 0.0197
usemtl skin_.002
s 1
f 1/1/1 3/2/2 4/3/3
f 6/4/4 8/5/5 5/6/6
f 9/7/7 5/8/8 8/9/9
f 5/8/10 11/10/11 12/11/12
f 11/10/13 4/12/14 12/11/15
f 13/13/16 1/14/17 4/15/18
f 1/14/19 15/16/20 16/17/21
f 16/17/22 9/7/23 8/9/24
f 17/18/25 19/19/26 20/20/27
f 19/19/28 22/21/29 20/20/30
f 21/22/31 24/23/32 22/21/33
f 23/24/34 26/25/35 24/26/36
f 25/27/37 28/28/38 26/29/39
f 28/30/40 18/31/41 17/18/42
f 29/32/43 25/33/44 23/24/45
f 25/27/44 31/34/46 27/35/47
f 27/36/48 32/37/49 18/31/50
f 18/31/51 33/38/52 19/19/53
f 19/19/54 34/39/55 21/22/56
f 34/39/57 23/40/58 21/22/59
f 34/39/60 30/41/61 29/42/62
f 32/37/63 30/41/64 33/38/65
f 14/43/66 17/18/67 15/16/68
f 26/29/69 14/43/70 13/13/71
f 24/26/72 13/44/73 11/10/74
f 22/21/75 36/45/76 10/46/77
f 20/20/78 10/46/79 9/7/80
f 15/16/81 20/20/82 9/7/83
f 37/47/84 39/48/85 36/45/86
f 36/45/87 11/10/88 10/46/89
f 24/23/90 35/49/91 22/21/92
f 39/48/93 24/26/94 11/10/95
f 37/47/96 42/50/97 38/51/98
f 40/52/99 41/53/100 35/49/101
f 35/49/102 37/47/103 36/45/104
f 38/54/105 40/55/106 39/48/107
f 16/56/108 2/57/109 1/1/110
f 12/58/111 6/4/112 5/6/113
f 7/59/114 16/56/115 8/5/116
f 3/60/117 12/58/118 4/61/119
f 52/62/120 54/63/121 51/64/122
f 54/63/123 55/65/124 56/66/125
f 57/67/126 52/62/127 51/64/128
f 56/66/129 59/68/130 60/69/131
f 59/70/132 62/71/133 60/72/134
f 62/71/135 58/73/136 57/67/137
f 55/65/138 64/74/139 59/68/140
f 64/75/141 61/76/142 59/70/143
f 61/76/144 66/77/145 58/73/146
f 66/77/147 52/62/148 58/73/149
f 67/78/150 53/79/151 52/62/152
f 53/79/153 63/80/154 55/65/155
f 7/59/156 70/81/157 69/82/158
f 70/81/159 44/83/160 71/84/161
f 71/84/162 3/60/163 72/85/164
f 3/2/165 73/86/166 72/87/167
f 73/86/168 43/88/169 74/89/170
f 43/88/171 69/82/172 74/89/173
f 66/77/174 69/82/175 67/78/176
f 65/90/177 74/89/178 66/77/179
f 72/87/180 65/90/181 64/75/182
f 63/80/183 72/85/184 64/74/185
f 68/91/186 71/84/187 63/80/188
f 69/82/189 68/91/190 67/78/191
f 47/92/192 76/93/193 48/94/194
f 46/95/195 75/96/196 47/92/197
f 45/97/198 77/98/199 46/99/200
f 76/93/201 49/100/202 48/94/203
f 80/101/204 45/97/205 50/102/206
f 79/103/207 50/102/208 49/100/209
f 75/96/210 57/67/211 76/93/212
f 77/104/213 62/71/214 75/96/215
f 78/105/216 60/69/217 77/98/218
f 76/93/219 51/64/220 79/103/221
f 80/101/222 56/66/223 78/105/224
f 51/64/225 80/101/226 79/103/227
f 49/106/228 83/107/228 82/108/229
f 50/109/228 81/110/228 83/107/228
f 83/107/230 46/95/231 47/92/232
f 1/1/1 2/57/233 3/2/2
f 6/4/4 7/59/234 8/5/5
f 9/7/7 10/46/235 5/8/8
f 5/8/10 10/46/236 11/10/11
f 11/10/13 13/44/237 4/12/14
f 13/13/16 14/43/238 1/14/17
f 1/14/19 14/43/239 15/16/20
f 16/17/22 15/16/240 9/7/23
f 17/18/25 18/31/241 19/19/26
f 19/19/28 21/22/242 22/21/29
f 21/22/31 23/40/243 24/23/32
f 23/24/34 25/33/244 26/25/35
f 25/27/37 27/35/245 28/28/38
f 28/30/40 27/36/246 18/31/41
f 29/32/43 30/111/247 25/33/44
f 25/27/44 30/112/247 31/34/46
f 27/36/48 31/113/248 32/37/49
f 18/31/51 32/37/249 33/38/52
f 19/19/54 33/38/250 34/39/55
f 34/39/57 29/42/251 23/40/58
f 34/39/60 33/38/252 30/41/61
f 32/37/63 31/113/253 30/41/64
f 14/43/66 28/30/254 17/18/67
f 26/29/69 28/28/255 14/43/70
f 24/26/72 26/25/256 13/44/73
f 22/21/75 35/49/257 36/45/76
f 20/20/78 22/21/258 10/46/79
f 15/16/81 17/18/259 20/20/82
f 37/47/84 38/114/260 39/48/85
f 36/45/87 39/48/261 11/10/88
f 24/23/90 40/52/262 35/49/91
f 39/48/93 40/55/263 24/26/94
f 37/47/96 41/53/264 42/50/97
f 40/52/99 42/115/265 41/53/100
f 35/49/102 41/53/266 37/47/103
f 38/54/105 42/116/267 40/55/106
f 16/56/108 43/88/268 2/57/109
f 12/58/111 44/83/269 6/4/112
f 7/59/114 43/88/270 16/56/115
f 3/60/117 44/83/271 12/58/118
f 52/62/120 53/79/272 54/63/121
f 54/63/123 53/79/273 55/65/124
f 57/67/126 58/73/274 52/62/127
f 56/66/129 55/65/275 59/68/130
f 59/70/132 61/76/276 62/71/133
f 62/71/135 61/76/277 58/73/136
f 55/65/138 63/80/278 64/74/139
f 64/75/141 65/90/279 61/76/142
f 61/76/144 65/90/280 66/77/145
f 66/77/147 67/78/281 52/62/148
f 67/78/150 68/91/282 53/79/151
f 53/79/153 68/91/283 63/80/154
f 7/59/156 6/4/284 70/81/157
f 70/81/159 6/4/285 44/83/160
f 71/84/162 44/83/286 3/60/163
f 3/2/165 2/57/287 73/86/166
f 73/86/168 2/57/288 43/88/169
f 43/88/171 7/59/289 69/82/172
f 66/77/174 74/89/290 69/82/175
f 65/90/177 73/86/291 74/89/178
f 72/87/180 73/86/292 65/90/181
f 63/80/183 71/84/293 72/85/184
f 68/91/186 70/81/294 71/84/187
f 69/82/189 70/81/295 68/91/190
f 47/92/192 75/96/296 76/93/193
f 46/95/195 77/104/297 75/96/196
f 45/97/198 78/105/298 77/98/199
f 76/93/201 79/103/299 49/100/202
f 80/101/204 78/105/300 45/97/205
f 79/103/207 80/101/301 50/102/208
f 75/96/210 62/71/302 57/67/211
f 77/104/213 60/72/303 62/71/214
f 78/105/216 56/66/304 60/69/217
f 76/93/219 57/67/305 51/64/220
f 80/101/222 54/63/306 56/66/223
f 51/64/225 54/63/307 80/101/226
f 49/106/228 50/109/228 83/107/228
f 50/109/228 45/117/308 81/110/228
f 48/94/309 49/106/228 82/108/229
f 83/107/230 81/110/228 45/97/308
f 45/97/308 46/95/231 83/107/230
f 47/92/232 48/94/309 82/108/229
f 82/108/229 83/107/230 47/92/232
