# Blender v2.79 (sub 0) OBJ File: ''
# www.blender.org
mtllib rLeg.mtl
o Body_body_mesh.006
v 0.092094 -0.151713 0.096358
v 0.092094 -0.109822 -0.184107
v 0.092094 0.019334 -0.192408
v 0.092094 -0.017557 0.131610
v 0.051101 -1.388082 -0.095821
v 0.051101 -1.391173 -0.001358
v 0.051101 -1.415175 -0.001651
v 0.051101 -1.412084 -0.096114
v -0.011637 -1.260720 0.049364
v -0.012171 -1.248403 0.044565
v -0.109545 -1.247036 0.006674
v -0.106912 -1.259266 0.009054
v -0.098414 -1.255266 -0.081698
v -0.109545 -1.243276 -0.078631
v -0.023815 -1.241916 -0.119037
v -0.021212 -1.253819 -0.124683
v 0.061133 -1.134767 -0.080788
v 0.075732 -1.114523 -0.095869
v -0.023658 -1.113044 -0.136871
v -0.024503 -1.133578 -0.113720
v 0.066095 -1.259266 0.009054
v 0.063426 -1.247036 0.006674
v 0.057597 -1.255266 -0.081698
v 0.063426 -1.243276 -0.078631
v -0.030288 -1.139245 0.043360
v -0.042688 -0.942668 0.072553
v -0.099638 -0.941246 0.033298
v -0.096602 -1.138051 -0.000359
v -0.034808 -0.934330 -0.139866
v 0.062260 -0.936078 -0.091410
v 0.064308 -1.138051 0.010262
v 0.062260 -0.940911 0.042558
v -0.113568 -0.936078 -0.091410
v -0.112975 -1.134767 -0.080788
v -0.049584 -0.631677 0.108032
v -0.052690 -0.577855 0.113554
v -0.126356 -0.576254 0.073199
v -0.119445 -0.630235 0.068908
v -0.131595 -0.625262 -0.053513
v -0.138879 -0.571300 -0.051869
v -0.056824 -0.569562 -0.100068
v -0.053205 -0.623561 -0.100683
v 0.057044 -0.571300 -0.051869
v 0.057012 -0.625262 -0.053513
v 0.057012 -0.629967 0.076900
v 0.057044 -0.576108 0.081388
v -0.141112 -0.370114 0.067833
v -0.154467 -0.370110 -0.077858
v 0.055873 -0.370110 -0.077858
v 0.063293 -0.370110 0.076506
v -0.075767 -0.370110 0.116346
v -0.080004 -0.370110 -0.125616
v -0.151204 -0.165839 -0.084708
v -0.076267 -0.167960 -0.162413
v 0.049939 -0.145275 -0.186249
v 0.075731 -0.159173 0.069050
v -0.070193 -0.168511 0.109642
v -0.149107 -0.166649 0.061814
v 0.023317 0.021083 -0.207634
v -0.064886 0.020845 -0.168505
v -0.144191 0.022557 -0.070485
v -0.074255 -0.018806 0.100929
v -0.149085 0.021766 0.048941
v -0.018082 -1.386963 -0.129039
v -0.091102 -1.388082 -0.095821
v -0.087847 -1.297333 0.114694
v -0.081555 -1.342942 0.220652
v -0.018023 -1.334851 0.255848
v -0.016241 -1.279298 0.136168
v -0.091102 -1.391173 -0.001358
v -0.094436 -1.391173 0.225364
v -0.015473 -1.392297 0.255848
v 0.050815 -1.391173 0.225364
v 0.037551 -1.342942 0.220652
v -0.102110 -1.395919 0.105325
v 0.040355 -1.290257 0.114694
v 0.054234 -1.395919 0.105325
v -0.091102 -1.412084 -0.096114
v -0.091102 -1.415175 -0.001651
v -0.015473 -1.416299 0.255554
v 0.050815 -1.415176 0.225070
v -0.018082 -1.410966 -0.129332
v 0.056978 -0.671275 -0.059842
v 0.056978 -0.675873 0.067630
v -0.112641 -0.676368 0.060023
v -0.124064 -0.671275 -0.059842
v -0.046373 -0.677545 0.097693
v -0.049463 -0.669611 -0.105949
v -0.102110 -1.419922 0.105032
v -0.094436 -1.415176 0.225070
v -0.126341 -1.114523 -0.095869
v -0.107337 -1.118613 0.004267
v -0.030373 -1.120099 0.058698
v 0.079417 -1.118613 0.017490
v 0.054234 -1.419922 0.105032
v -0.022433 -1.416299 0.129906
v -0.021379 -1.416299 0.018412
vt 0.090871 0.313673
vt 0.117302 0.301039
vt 0.120249 0.307682
vt 0.094398 0.320203
vt 0.125299 0.233123
vt 0.121263 0.230422
vt 0.135317 0.192167
vt 0.139646 0.194248
vt 0.141390 0.162265
vt 0.136593 0.164190
vt 0.143637 0.134143
vt 0.147649 0.133566
vt 0.046995 0.233529
vt 0.049293 0.240846
vt 0.021398 0.251226
vt 0.020759 0.240846
vt 0.101601 0.257498
vt 0.098543 0.254120
vt 0.072912 0.273014
vt 0.072067 0.268576
vt 0.047866 0.289896
vt 0.045507 0.286343
vt 0.177703 0.384100
vt 0.178854 0.439425
vt 0.159854 0.439710
vt 0.155378 0.384325
vt 0.105701 0.381290
vt 0.101069 0.436048
vt 0.071303 0.432367
vt 0.080080 0.376554
vt 0.205843 0.381127
vt 0.208574 0.436548
vt 0.125904 0.437976
vt 0.132313 0.383561
vt 0.231070 0.376800
vt 0.245383 0.430800
vt 0.183537 0.527846
vt 0.184210 0.542956
vt 0.160921 0.544697
vt 0.161102 0.529308
vt 0.125308 0.528056
vt 0.124800 0.544078
vt 0.096910 0.540749
vt 0.098218 0.524587
vt 0.061459 0.535254
vt 0.063482 0.520287
vt 0.214164 0.524325
vt 0.215766 0.539293
vt 0.250000 0.518582
vt 0.252424 0.533607
vt 0.158624 0.602870
vt 0.117485 0.601895
vt 0.270692 0.586753
vt 0.227445 0.599086
vt 0.182475 0.602332
vt 0.092614 0.599586
vt 0.053566 0.590930
vt 0.111435 0.658531
vt 0.081617 0.655951
vt 0.045787 0.659622
vt 0.242788 0.688054
vt 0.181912 0.666822
vt 0.153492 0.662813
vt 0.325292 0.617793
vt 0.335308 0.630061
vt 0.240730 0.701962
vt 0.047923 0.706426
vt 0.028729 0.703342
vt 0.033027 0.667895
vt 0.074518 0.707606
vt 0.109172 0.710696
vt 0.168221 0.707741
vt 0.141856 0.714292
vt 0.202045 0.731439
vt 0.187641 0.137447
vt 0.185539 0.161641
vt 0.161636 0.227354
vt 0.180065 0.248327
vt 0.174650 0.259632
vt 0.151635 0.246736
vt 0.069862 0.325441
vt 0.185518 0.189787
vt 0.190554 0.249646
vt 0.182783 0.265081
vt 0.174017 0.277399
vt 0.167733 0.268688
vt 0.190118 0.220138
vt 0.140470 0.259881
vt 0.147276 0.291131
vt 0.192666 0.162067
vt 0.192521 0.189506
vt 0.186859 0.267514
vt 0.178163 0.282149
vt 0.194782 0.138162
vt 0.249311 0.505750
vt 0.213721 0.511264
vt 0.160467 0.515451
vt 0.124631 0.514175
vt 0.182886 0.514458
vt 0.098887 0.510861
vt 0.065485 0.507270
vt 0.196558 0.219595
vt 0.196543 0.250966
vt 0.103633 0.154573
vt 0.102247 0.125259
vt 0.096944 0.179606
vt 0.088263 0.202394
vt 0.071568 0.225246
vt 0.067593 0.220163
vt 0.082924 0.198962
vt 0.092766 0.129190
vt 0.096653 0.155841
vt 0.091053 0.178469
vt 0.205188 0.301790
vt 0.210807 0.280513
vt 0.227393 0.264713
vt 0.271605 0.318365
vt 0.236748 0.296374
vt 0.251495 0.282555
vt 0.274133 0.296103
vt 0.253699 0.330143
vt 0.231096 0.316535
vt 0.149835 0.297270
vt 0.073596 0.331907
vn 1.0000 0.0000 0.0000
vn -0.3644 0.2178 0.9054
vn -0.4556 0.0620 -0.8880
vn -0.2521 0.7110 0.6565
vn 0.4283 0.3047 0.8507
vn 0.9904 -0.1277 -0.0534
vn 0.4374 0.2554 -0.8623
vn -0.5541 -0.1525 0.8184
vn 0.4048 -0.0749 -0.9113
vn 0.3005 -0.1364 0.9440
vn -0.9892 -0.0175 0.1454
vn 0.9999 0.0031 -0.0140
vn -0.4343 -0.0947 -0.8958
vn -0.4827 -0.1238 0.8670
vn -0.5101 -0.0335 -0.8594
vn 0.3918 0.0323 -0.9195
vn 0.2811 -0.0809 0.9563
vn -0.9865 -0.1348 0.0929
vn 1.0000 -0.0007 -0.0000
vn 1.0000 -0.0006 -0.0000
vn -0.9934 -0.0668 0.0937
vn 0.9996 -0.0144 -0.0260
vn -0.5385 -0.0440 0.8415
vn -0.5148 -0.1582 -0.8426
vn 0.3563 -0.0979 -0.9292
vn 0.2779 0.0162 0.9605
vn 0.2781 0.0167 0.9604
vn 0.2743 0.0187 0.9615
vn -0.6421 -0.0709 -0.7634
vn 0.1135 -0.3193 -0.9408
vn 0.2709 0.0212 0.9624
vn -0.9986 -0.0099 0.0528
vn 0.9960 -0.0367 -0.0820
vn -0.5550 0.0228 0.8315
vn 0.6233 -0.7741 -0.1106
vn 0.1785 -0.0824 -0.9805
vn -0.2723 -0.0858 -0.9584
vn -0.7500 0.0508 -0.6594
vn -0.5347 0.0475 0.8437
vn -0.9998 0.0187 -0.0104
vn -0.2660 -0.3636 0.8928
vn 0.2637 0.0632 0.9625
vn 0.9959 -0.0763 -0.0486
vn -0.4526 0.0441 -0.8906
vn -0.3303 0.8588 0.3916
vn 0.4578 0.0559 -0.8873
vn -0.9954 -0.0824 -0.0488
vn -0.4205 0.0814 0.9036
vn 0.4764 0.1102 0.8723
vn -0.9796 0.1782 0.0928
vn 0.9831 0.1715 0.0634
vn 0.3505 0.8416 0.4109
vn -1.0000 0.0000 0.0000
vn 0.4179 -0.0111 0.9084
vn -0.4142 0.0111 -0.9101
vn -0.9819 -0.1674 0.0886
vn 0.2775 -0.1915 0.9414
vn 0.3938 0.1305 -0.9099
vn -0.5208 0.0436 -0.8526
vn -0.4816 -0.2292 0.8459
vn -0.5285 -0.0991 0.8431
vn -0.5245 0.0799 -0.8477
vn 0.4197 0.1269 -0.8987
vn 0.2773 -0.0859 0.9569
vn -0.9934 -0.0551 0.1007
vn 0.9998 0.0199 0.0007
vn -0.9947 0.0013 -0.1026
vn 0.1923 0.9426 0.2731
vn 0.9945 -0.0133 0.1037
vn -0.9993 -0.0098 0.0359
vn -0.9980 -0.0008 0.0638
vn -0.2005 0.9356 0.2905
vn -0.3903 -0.1489 -0.9086
vn -0.9938 -0.0488 0.0998
vn -0.4677 -0.0694 0.8811
vn 0.3921 -0.0856 0.9159
vn 0.9937 -0.1099 -0.0228
vn 0.3939 -0.1427 -0.9080
vn -0.7949 0.6047 0.0485
vn -0.8684 -0.4917 -0.0636
vn -0.2885 0.5646 -0.7733
vn 0.2484 0.7020 0.6674
vn 0.4943 0.5048 -0.7077
vn 0.8621 0.4843 -0.1491
vn -0.0100 -0.9998 0.0195
vn 0.0092 -0.9998 0.0188
vn 0.0000 -0.9994 -0.0348
vn -0.0032 -0.9994 -0.0348
vn 0.0033 -0.9994 -0.0347
vn 0.0229 -0.9995 -0.0205
vn -0.0232 -0.9995 -0.0215
vn 0.9996 -0.0003 0.0285
vn 0.9996 0.0004 -0.0293
vn 0.4330 0.0110 -0.9013
vn -0.3603 -0.0114 0.9328
vn 0.0690 0.9901 0.1219
vn 0.7393 0.6683 0.0823
vn 0.6474 0.7565 0.0931
usemtl skin_.006
s 1
f 5/1/1 6/2/1 7/3/1 8/4/1
f 9/5/2 10/6/2 11/7/2 12/8/2
f 13/9/3 14/10/3 15/11/3 16/12/3
f 17/13/4 18/14/4 19/15/4 20/16/4
f 21/17/5 22/18/5 10/6/5 9/5/5
f 23/19/6 24/20/6 22/18/6 21/17/6
f 16/21/7 15/22/7 24/20/7 23/19/7
f 25/23/8 26/24/8 27/25/8 28/26/8
f 20/27/9 29/28/9 30/29/9 17/30/9
f 31/31/10 32/32/10 26/24/10 25/23/10
f 28/26/11 27/25/11 33/33/11 34/34/11
f 17/35/12 30/36/12 32/32/12 31/31/12
f 34/34/13 33/33/13 29/28/13 20/27/13
f 35/37/14 36/38/14 37/39/14 38/40/14
f 39/41/15 40/42/15 41/43/15 42/44/15
f 42/44/16 41/43/16 43/45/16 44/46/16
f 45/47/17 46/48/17 36/38/17 35/37/17
f 38/40/18 37/39/18 40/42/18 39/41/18
f 44/49/19 43/50/20 46/48/20 45/47/19
f 37/39/21 47/51/21 48/52/21 40/42/21
f 43/50/22 49/53/22 50/54/22 46/48/22
f 36/38/23 51/55/23 47/51/23 37/39/23
f 40/42/24 48/52/24 52/56/24 41/43/24
f 41/43/25 52/56/25 49/57/25 43/45/25
f 46/48/26 50/54/27 51/55/28 36/38/26
f 48/52/29 53/58/29 54/59/29 52/56/29
f 52/56/30 54/59/30 55/60/30 49/57/30
f 50/54/27 56/61/31 57/62/31 51/55/28
f 47/51/32 58/63/32 53/58/32 48/52/32
f 49/53/33 55/64/33 56/61/33 50/54/33
f 51/55/34 57/62/34 58/63/34 47/51/34
f 55/64/35 2/65/35 1/66/35 56/61/35
f 55/60/36 59/67/36 3/68/36 2/69/36
f 54/59/37 60/70/37 59/67/37 55/60/37
f 53/58/38 61/71/38 60/70/38 54/59/38
f 57/62/39 62/72/39 63/73/39 58/63/39
f 58/63/40 63/73/40 61/71/40 53/58/40
f 1/66/41 4/74/41 62/72/41 56/61/41
f 57/62/42 56/61/42 62/72/42
f 21/17/43 6/2/43 5/1/43 23/19/43
f 16/12/44 64/75/44 65/76/44 13/9/44
f 66/77/45 67/78/45 68/79/45 69/80/45
f 23/19/46 5/1/46 64/81/46 16/21/46
f 13/9/47 65/76/47 70/82/47 12/8/47
f 67/78/48 71/83/48 72/84/48 68/79/48
f 68/79/49 72/84/49 73/85/49 74/86/49
f 75/87/50 71/83/50 67/78/50 66/77/50
f 76/88/51 74/86/51 73/85/51 77/89/51
f 69/80/52 68/79/52 74/86/52 76/88/52
f 70/82/53 65/76/53 78/90/53 79/91/53
f 73/85/54 72/84/54 80/92/54 81/93/54
f 65/76/55 64/75/55 82/94/55 78/90/55
f 83/95/19 44/49/19 45/47/19 84/96/19
f 85/97/56 38/40/56 39/41/56 86/98/56
f 84/96/57 45/47/57 35/37/57 87/99/57
f 88/100/58 42/44/58 44/46/58 83/101/58
f 86/98/59 39/41/59 42/44/59 88/100/59
f 87/99/60 35/37/60 38/40/60 85/97/60
f 26/24/61 87/99/61 85/97/61 27/25/61
f 33/33/62 86/98/62 88/100/62 29/28/62
f 29/28/63 88/100/63 83/101/63 30/29/63
f 32/32/64 84/96/64 87/99/64 26/24/64
f 27/25/65 85/97/65 86/98/65 33/33/65
f 30/36/66 83/95/66 84/96/66 32/32/66
f 75/87/67 70/82/67 79/91/67 89/102/67
f 9/5/68 69/80/68 76/88/68 21/17/68
f 21/17/69 76/88/69 77/89/69 6/2/69
f 70/82/70 75/87/70 66/77/70 12/8/70
f 71/83/71 75/87/71 89/102/71 90/103/71
f 12/8/72 66/77/72 69/80/72 9/5/72
f 15/11/73 14/10/73 91/104/73 19/105/73
f 14/10/74 11/7/74 92/106/74 91/104/74
f 11/7/75 10/6/75 93/107/75 92/106/75
f 10/6/76 22/18/76 94/108/76 93/107/76
f 22/18/77 24/20/77 18/14/77 94/108/77
f 24/20/78 15/22/78 19/15/78 18/14/78
f 31/109/79 94/108/79 18/14/79 17/13/79
f 12/8/80 11/7/80 14/10/80 13/9/80
f 25/110/81 93/107/81 94/108/81 31/109/81
f 20/111/82 19/105/82 91/104/82 34/112/82
f 28/113/83 92/106/83 93/107/83 25/110/83
f 34/112/84 91/104/84 92/106/84 28/113/84
f 95/114/85 81/93/85 80/92/85 96/115/85
f 96/115/86 80/92/86 90/103/86 89/116/86
f 82/117/87 97/118/87 79/119/88 78/120/88
f 97/118/87 82/117/87 8/121/89 7/122/89
f 97/118/90 96/115/90 89/116/90 79/119/90
f 7/122/91 95/114/91 96/115/91 97/118/91
f 77/89/92 73/85/92 81/93/92 95/123/92
f 6/2/93 77/89/93 95/123/93 7/3/93
f 64/81/94 5/1/94 8/4/94 82/124/94
f 72/84/95 71/83/95 90/103/95 80/92/95
f 62/72/96 4/74/97 3/68/98 59/67/96 60/70/96 61/71/96 63/73/96
f 4/74/97 1/66/1 2/69/1 3/68/98
