# Blender v2.79 (sub 0) OBJ File: ''
# www.blender.org
mtllib table.mtl
o Cube.003
v 5.000000 -0.670886 -10.000001
v 5.000000 -0.670891 9.999999
v -5.000000 -0.670891 9.999997
v -4.999998 -0.670886 -10.000005
v 4.999998 0.319960 10.000005
v 5.000002 0.319965 -9.999996
v 5.000002 0.319965 -9.999996
v 4.999998 0.319960 10.000005
v -5.000001 0.319960 9.999995
v -5.000000 0.319965 -10.000001
v -4.655939 0.319960 9.311871
v 4.655934 0.319960 9.311879
v 4.655934 -0.608962 9.311879
v -4.655939 -0.608962 9.311871
v -5.000001 0.319960 9.999995
v 4.655941 0.319965 -9.311871
v 4.655934 0.319960 9.311879
v 4.655941 0.319965 -9.311871
v -4.655939 0.319960 9.311871
v 4.655941 -0.608958 -9.311871
v -4.655937 -0.608958 -9.311875
v -4.655937 0.319965 -9.311875
v -5.000000 0.319965 -10.000001
v -4.655937 0.319965 -9.311875
vt 0.000000 0.000000
vt 1.000000 0.000000
vt 1.000000 1.000000
vt 0.000000 1.000000
vt 0.000000 0.000000
vt 1.000000 0.000000
vt 1.000000 1.000000
vt 0.000000 1.000000
vt 1.000000 1.000000
vt 0.000000 1.000000
vt 0.000000 0.000000
vt 1.000000 0.000000
vt 1.000000 1.000000
vt 0.000000 1.000000
vt 0.000000 0.000000
vt 1.000000 0.000000
vt 1.000000 1.000000
vt 0.000000 0.000000
vt 1.000000 0.000000
vt 1.000000 1.000000
vt 0.000000 1.000000
vt 0.000000 0.000000
vt 1.000000 0.000000
vt 1.000000 1.000000
vt 0.000000 1.000000
vt 0.000000 0.000000
vt 1.000000 1.000000
vt 0.000000 1.000000
vt 0.000000 0.000000
vt 1.000000 1.000000
vt 0.000000 1.000000
vt 0.000000 0.000000
vt 1.000000 0.000000
vt 1.000000 1.000000
vt 0.000000 1.000000
vt 0.000000 0.000000
vt 1.000000 0.000000
vt 1.000000 1.000000
vt 0.000000 1.000000
vt 1.000000 0.000000
vt 1.000000 1.000000
vt 0.000000 0.000000
vt 0.000000 1.000000
vt 1.000000 0.000000
vt 1.000000 1.000000
vt 0.000000 1.000000
vt 0.000000 0.000000
vt 1.000000 0.000000
vt 0.000000 1.000000
vt 0.000000 0.000000
vt 1.000000 0.000000
vt 1.000000 1.000000
vt 0.000000 0.000000
vt 1.000000 0.000000
vt 0.000000 1.000000
vt 0.000000 0.000000
vt 1.000000 0.000000
vt 1.000000 1.000000
vt 0.000000 0.000000
vt 1.000000 1.000000
vt 0.000000 1.000000
vt 1.000000 0.000000
vt 1.000000 1.000000
vt 0.000000 1.000000
vn 0.0000 -1.0000 -0.0000
vn 0.0000 0.0000 0.0000
vn 1.0000 0.0000 0.0000
vn -0.0000 -0.0000 1.0000
vn -1.0000 -0.0000 -0.0000
vn 0.0000 0.0000 -1.0000
vn -0.0000 1.0000 0.0000
usemtl Material.002
s 1
f 1/1/1 2/2/1 3/3/1 4/4/1
f 5/5/2 6/6/2 7/7/2 8/8/2
f 1/1/3 6/6/3 5/9/3 2/10/3
f 2/11/4 5/12/2 9/13/2 3/14/4
f 3/15/5 9/16/5 10/17/5 4/4/5
f 6/18/6 1/19/6 4/20/6 10/21/6
f 11/22/6 12/23/6 13/24/6 14/25/6
f 9/26/2 5/12/2 8/27/2 15/28/2
f 16/29/2 12/23/2 17/30/2 18/31/2
f 12/32/2 11/33/2 19/34/2 17/35/2
f 20/36/7 21/37/7 14/38/7 13/39/7
f 12/32/5 16/40/5 20/41/5 13/39/5
f 22/42/3 11/33/3 14/38/3 21/43/3
f 16/29/2 22/44/2 21/45/4 20/46/4
f 15/47/7 8/48/7 17/30/7 19/49/7
f 8/50/7 7/51/7 18/52/7 17/35/7
f 23/53/7 15/54/7 19/34/7 24/55/7
f 7/56/7 23/57/7 24/58/7 18/31/7
f 11/22/2 22/44/2 24/58/2 19/49/2
f 22/42/2 16/40/2 18/52/2 24/55/2
f 10/59/2 9/16/2 15/60/2 23/61/2
f 6/18/2 10/62/2 23/63/2 7/64/2
