# Blender v2.79 (sub 0) OBJ File: ''
# www.blender.org
mtllib warehouseRoom.mtl
o walls_Plane.006_walls_Plane.007
v -23.150782 14.054679 -23.150776
v 23.150782 3.553795 -23.150782
v 23.150782 14.054679 -23.150776
v -23.150782 3.553780 8.721601
v -23.150782 14.054656 23.150787
v -23.150782 3.553771 23.150782
v -23.150782 3.553780 6.733164
v -23.150782 14.054667 6.733171
v -23.150782 14.054667 8.721602
v -23.150782 0.000012 -23.150782
v -23.150782 -0.000003 6.733164
v 23.150782 0.000012 -23.150782
v 23.150782 3.553771 23.150782
v 23.150782 -0.000012 23.150782
v 23.150782 14.054656 23.150787
v -23.150782 -0.000012 23.150782
v -23.740057 -0.000003 8.721598
v -23.150782 -0.000003 8.721598
v -23.740057 -0.000003 6.733164
v -23.740057 3.553780 8.721601
v -23.740057 3.553780 6.733164
v -23.150782 3.553795 -23.150782
vt 0.000000 0.000000
vt 0.000000 0.000000
vt 0.000000 0.000000
vt 0.000000 0.000000
vt 0.000000 0.000000
vt 0.000000 0.000000
vt 0.000000 0.000000
vt 0.000000 0.000000
vt 0.000000 0.000000
vt 0.000000 0.000000
vt -6.001378 0.031871
vt 0.000000 0.000000
vt -0.435020 0.937929
vt -3.817243 0.027431
vt 0.000000 0.000000
vt 0.000000 0.000000
vt 0.000000 0.000000
vt 0.000000 0.000000
vt 6.330693 0.029647
vt 7.385191 0.947230
vt 6.330539 0.944987
vt 2.946934 0.024055
vt 0.000000 0.000000
vt 0.000000 0.000000
vt 0.000000 0.000000
vt -6.001378 0.031871
vt 7.385349 0.031876
vt 0.000000 0.000000
vt 0.000000 0.000000
vt 7.385349 0.031876
vt 7.385191 0.947230
vt -0.435020 0.937929
vt 0.000000 0.000000
vt 6.330539 0.944987
vt 0.000000 0.000000
vt -6.001378 0.031871
vt 7.385349 0.031876
vn 0.0000 -0.0000 1.0000
vn 1.0000 0.0000 0.0000
vn -1.0000 -0.0000 0.0000
vn 0.0000 0.0000 -1.0000
vn 0.0000 1.0000 0.0000
vn 0.0000 -1.0000 0.0000
usemtl walls.007
s 1
f 1/1/1 2/2/1 3/3/1
f 4/4/2 5/5/2 6/6/2
f 7/7/2 1/1/2 8/8/2
f 7/7/2 9/9/2 4/4/2
f 10/10/2 7/11/2 11/12/2
f 2/13/1 10/14/1 12/15/1
f 13/16/3 12/15/3 14/17/3
f 2/2/3 15/18/3 3/3/3
f 16/19/2 4/20/2 6/21/2
f 15/18/4 6/6/4 5/5/4
f 6/21/4 14/22/4 16/23/4
f 11/12/5 17/24/5 18/25/5
f 19/26/2 20/27/2 17/24/2
f 4/4/6 21/28/6 7/7/6
f 7/11/1 19/29/1 11/12/1
f 18/30/4 20/31/4 4/20/4
f 1/1/1 22/32/1 2/2/1
f 4/4/2 9/9/2 5/5/2
f 7/7/2 22/33/2 1/1/2
f 7/7/2 8/8/2 9/9/2
f 10/10/2 22/33/2 7/11/2
f 2/13/1 22/33/1 10/14/1
f 13/16/3 2/2/3 12/15/3
f 2/2/3 13/16/3 15/18/3
f 16/19/2 18/30/2 4/20/2
f 15/18/4 13/34/4 6/6/4
f 6/21/4 13/16/4 14/22/4
f 11/12/5 19/29/5 17/24/5
f 19/26/2 21/28/2 20/27/2
f 4/4/6 20/35/6 21/28/6
f 7/11/1 21/36/1 19/29/1
f 18/30/4 17/37/4 20/31/4
l 10 16
