# Blender v2.79 (sub 0) OBJ File: ''
# www.blender.org
mtllib warehouseRoomL.mtl
o walls_Plane.006_walls_Plane.007
v -23.150782 14.054683 -23.150774
v -23.150782 3.553779 8.721601
v -23.150782 14.054652 23.150789
v -23.150782 3.553767 23.150782
v -23.150782 3.553779 6.733164
v -23.150782 14.054667 6.733173
v -23.150782 14.054667 8.721604
v -23.150782 0.000016 -23.150782
v -23.150782 -0.000004 6.733164
v -23.150782 -0.000016 23.150782
v -23.740057 -0.000004 8.721598
v -23.150782 -0.000004 8.721598
v -23.740057 -0.000004 6.733164
v -23.740057 3.553779 8.721601
v -23.740057 3.553779 6.733164
v -23.150782 3.553799 -23.150782
vt 0.000000 0.000000
vt 0.000000 0.000000
vt 0.000000 0.000000
vt 0.000000 0.000000
vt 0.000000 0.000000
vt 0.000000 0.000000
vt 0.000000 0.000000
vt 0.000000 0.000000
vt -6.001378 0.031871
vt 0.000000 0.000000
vt 6.330693 0.029647
vt 7.385191 0.947230
vt 6.330539 0.944987
vt 0.000000 0.000000
vt 0.000000 0.000000
vt -6.001378 0.031871
vt 7.385349 0.031876
vt 0.000000 0.000000
vt 0.000000 0.000000
vt 7.385349 0.031876
vt 7.385191 0.947230
vt 0.000000 0.000000
vt 0.000000 0.000000
vt -6.001378 0.031871
vt 7.385349 0.031876
vn 1.0000 -0.0000 0.0000
vn 0.0000 1.0000 0.0000
vn 0.0000 -1.0000 -0.0000
vn 0.0000 -0.0000 1.0000
vn 0.0000 0.0000 -1.0000
usemtl walls.007
s 1
f 2/1/1 3/2/1 4/3/1
f 5/4/1 1/5/1 6/6/1
f 5/4/1 7/7/1 2/1/1
f 8/8/1 5/9/1 9/10/1
f 10/11/1 2/12/1 4/13/1
f 9/10/2 11/14/2 12/15/2
f 13/16/1 14/17/1 11/14/1
f 2/1/3 15/18/3 5/4/3
f 5/9/4 13/19/4 9/10/4
f 12/20/5 14/21/5 2/12/5
f 2/1/1 7/7/1 3/2/1
f 5/4/1 16/22/1 1/5/1
f 5/4/1 6/6/1 7/7/1
f 8/8/1 16/22/1 5/9/1
f 10/11/1 12/20/1 2/12/1
f 9/10/2 13/19/2 11/14/2
f 13/16/1 15/18/1 14/17/1
f 2/1/3 14/23/3 15/18/3
f 5/9/4 15/24/4 13/19/4
f 12/20/5 11/25/5 14/21/5
l 8 10
